<svg width="151" height="92" viewBox="0 0 151 92" fill="none" xmlns="http://www.w3.org/2000/svg">
<path d="M42.2331 33.1841C42.0615 38.5826 44.7592 40.9731 44.826 42.4914C44.7942 42.8004 44.6889 43.0973 44.5189 43.3573C44.3489 43.6173 44.1192 43.8328 43.8489 43.9858L40.7984 46.1213C40.4036 46.3981 39.9383 46.5568 39.4567 46.5789C39.3542 46.5742 37.5048 47.0151 34.5759 40.475C32.789 42.7058 30.5153 44.4981 27.9291 45.7147C25.3428 46.9313 22.5125 47.54 19.6548 47.4942C15.775 47.7063 5.26044 45.2919 5.80142 34.097C5.4225 24.9732 13.9185 19.3055 22.7053 19.7845C24.3974 19.7893 27.853 19.8727 33.9039 21.2789V17.556C34.5449 11.2495 30.4006 6.35634 23.2248 7.09044C22.6529 7.09282 18.6015 6.97127 12.3003 9.50008C10.5463 10.3057 10.3223 10.1722 9.73843 10.1722C7.9725 10.1722 8.69937 5.05262 9.03778 4.40433C10.2794 2.87894 17.5839 0.0307495 24.7524 0.0712677C29.5456 -0.352678 34.3131 1.12676 38.0244 4.18982C39.533 5.87747 40.6839 7.85343 41.4077 9.99834C42.1315 12.1433 42.4131 14.4126 42.2354 16.6694L42.2331 33.1841ZM21.6376 40.904C29.3663 40.792 32.6384 36.1443 33.3843 33.6417C33.9706 31.2464 33.8729 29.7305 33.8729 27.1112C31.5683 26.5582 28.251 25.9552 24.445 25.9504C20.8345 25.6787 14.2403 27.2923 14.4976 33.6394C14.2021 37.6411 17.1477 41.1233 21.6376 40.904ZM62.3709 46.3978C60.4977 46.5694 59.6255 45.2395 59.349 43.9262L47.4808 4.68318C47.2496 4.02059 47.0971 3.33655 47.0232 2.63821C46.9795 2.3503 47.0518 2.05678 47.2243 1.82216C47.3967 1.58753 47.6553 1.43098 47.9431 1.38691C48.0003 1.37738 47.4355 1.38691 53.2457 1.38691C55.3381 1.17717 56.0197 2.82412 56.2366 3.85852L64.7493 37.4242L72.6519 3.85852C72.7782 3.09106 73.3526 1.22008 75.7024 1.4179H79.7919C80.3091 1.375 82.4396 1.29873 82.8138 3.88951L90.7784 37.8842L99.5651 3.88951C99.6795 3.36992 100.213 1.17956 102.587 1.4179H107.287C107.489 1.38692 108.752 1.22484 108.538 3.46287C108.435 3.90381 109.35 0.92215 95.9666 43.9572C95.6925 45.2704 94.8179 46.6004 92.9447 46.4288H88.4905C85.8833 46.7029 85.5092 44.1264 85.4687 43.8666L77.566 11.1828L69.754 43.8332C69.7159 44.093 69.3417 46.6695 66.7321 46.3954H62.3709V46.3978ZM127.546 47.7397C126.145 47.742 119.462 47.6682 113.876 44.8104C113.32 44.5748 112.846 44.1792 112.514 43.6739C112.183 43.1685 112.009 42.5761 112.015 41.9718V39.4096C112.015 37.3956 113.492 37.765 114.119 38.0058C116.512 38.9734 118.047 39.7075 120.985 40.2939C129.719 42.0886 133.561 39.7457 134.503 39.2261C137.636 37.3646 137.884 33.1055 135.754 30.896C133.256 28.801 132.065 28.7224 123.092 25.8909C121.986 25.5834 112.677 22.647 112.656 13.4113C112.511 6.68049 118.626 0.0212151 129.224 0.0760337C132.243 0.0736503 140.289 1.06039 142.467 3.79894C142.789 4.29707 142.949 4.88339 142.925 5.47686V7.8865C142.925 8.94474 142.539 9.47386 141.764 9.47386C139.927 9.26888 136.666 6.81158 130.048 6.91168C128.406 6.82588 120.542 7.12857 120.895 12.8631C120.792 17.382 127.236 19.0767 127.973 19.2721C136.662 21.8867 139.567 22.3205 143.015 26.3223C147.1 31.6254 144.898 37.8342 144.052 39.5359C139.505 48.4714 127.746 47.7444 127.546 47.7397ZM137.126 72.7322C120.437 85.0592 96.2096 91.6208 75.5237 91.6208C47.612 91.8049 20.641 81.5406 -0.0874079 62.8458C-1.64362 61.4419 -0.270913 59.5185 1.62133 60.5887C24.6153 73.7431 50.6493 80.6549 77.1395 80.638C96.9216 80.5319 116.488 76.5185 134.715 68.8282C137.522 67.6365 139.903 70.6872 137.126 72.7322ZM144.083 64.7978C141.948 62.0521 129.955 63.5155 124.586 64.1567C122.968 64.3402 122.694 62.9363 124.16 61.8996C133.709 55.1855 149.393 57.1089 151.194 59.366C152.994 61.6231 150.706 77.3393 141.766 84.8471C140.394 86.0079 139.081 85.3953 139.691 83.8699C141.702 78.8052 146.218 67.5459 144.083 64.7978Z" fill="#737373"/>
</svg>
