<svg width="149" height="50" viewBox="0 0 149 50" fill="none" xmlns="http://www.w3.org/2000/svg">
<path d="M33.6215 46.8866L42.5382 47.0744C39.465 45.9946 36.485 44.68 33.6215 43.1307V46.8866ZM47.0547 45.6425V46.8866L42.5382 47.0744C51.0358 50.0087 58.8118 50.4077 64.5855 48.7645C59.9525 48.8115 53.9227 48.1542 47.0547 45.6425ZM142.252 18.6002C145.953 18.6002 148.98 15.5721 148.98 11.8162C148.98 8.06032 145.977 6.06502 142.252 6.06502C138.55 6.06502 135.523 8.0838 135.523 11.8162C135.523 15.5486 138.527 18.6002 142.252 18.6002ZM135.5 46.8866H148.98V20.9476H135.5V46.8866ZM118.342 46.8866H131.822V1.04154L118.342 7.44999V46.8866ZM111.125 18.8584C106.888 14.5861 99.391 14.8444 99.391 14.8444C99.391 14.8444 91.8711 14.5861 87.6572 18.8584C83.42 23.1307 83.746 26.8162 83.746 31.2059C83.746 35.5955 83.42 39.2575 87.6572 43.5298C91.8944 47.8021 99.391 47.5439 99.391 47.5439C99.391 47.5439 106.911 47.8021 111.125 43.5298C115.362 39.2575 115.036 35.5955 115.036 31.2059C115.013 26.7927 115.339 23.1073 111.125 18.8584ZM101.859 35.7364C101.859 36.5815 101.44 38.6707 99.3677 38.6707C97.2957 38.6707 96.8766 36.5815 96.8766 35.7364V26.2528C96.8766 24.2106 98.5761 23.6941 99.3677 23.6941C100.159 23.6941 101.859 24.1871 101.859 26.2528V35.7364ZM77.1341 18.8584C72.8969 14.5861 65.4004 14.8444 65.4004 14.8444C65.4004 14.8444 57.9038 14.5861 53.6666 18.8584C53.2243 19.3045 52.8052 19.7739 52.4327 20.2669C43.5393 13.3185 35.5538 9.3514 28.6625 5.92417V1.06501L23.4243 3.55328C10.7593 -1.63452 2.70396 -0.719024 0.771612 3.57675C0.771612 3.57675 -5.02542 11.2763 15.1594 29.5861V46.8866H28.6393V40.173C27.126 39.1871 25.6127 38.1307 24.1227 36.9805C20.6771 34.3514 17.7436 31.9101 15.1827 29.6096V22.3326C18.2325 25.7833 22.2835 29.7035 27.6149 34.1401L28.6625 34.9852V27.9899C28.6625 26.3702 29.0583 23.7176 31.1769 23.7176C33.2955 23.7176 33.6447 25.3373 33.6447 27.2387V38.6707C37.8354 41.5345 42.3286 43.8584 47.078 45.619V23.5768C47.078 19.1871 43.9583 14.7974 37.6258 14.7974C33.9474 14.7739 30.525 16.7223 28.6625 19.9383V7.19177C38.4174 12.0979 48.1955 18.1073 51.9205 20.8772C49.5458 24.3045 49.7554 27.4735 49.7554 31.1354C49.7554 35.5251 49.4294 39.1871 53.6666 43.4594C57.9038 47.7317 65.4004 47.4735 65.4004 47.4735C65.4004 47.4735 72.9202 47.7317 77.1341 43.4594C81.3713 39.1871 81.0221 35.5251 81.0221 31.1354C81.0221 26.7927 81.3713 23.1073 77.1341 18.8584ZM15.1594 7.44999V22.3092C3.82145 9.51572 6.10302 4.46877 6.96442 3.74107C10.1074 1.06501 15.6949 1.86314 21.9575 4.23403L15.1594 7.44999ZM67.8914 35.7364C67.8914 36.5815 67.4724 38.6707 65.4004 38.6707C63.3283 38.6707 62.9093 36.5815 62.9093 35.7364V26.2528C62.9093 24.2106 64.6088 23.6941 65.4004 23.6941C66.1919 23.6941 67.8914 24.1871 67.8914 26.2528V35.7364Z" fill="#737373"/>
</svg>
