<svg width="139" height="99" viewBox="0 0 139 99" fill="none" xmlns="http://www.w3.org/2000/svg">
<path d="M0 1.64088H21.1215V58.7163C21.1215 67.7685 25.1938 73.1561 28.5059 75.3986C25.058 78.4342 14.6059 81.1144 6.73281 74.6329C2.11758 70.8041 0 64.432 0 58.4975V1.64088ZM131.914 49.0898V43.0732H138.376V22.0699H131.29C128.548 9.40774 117.39 0 104.06 0C88.6939 0 76.1785 12.5801 76.1785 28.0865V77.0942C80.5223 77.7232 85.7891 77.0122 90.2143 73.2655C94.8566 69.4367 96.9471 63.092 96.9471 57.1301V55.2978H107.481V34.2945H96.9471V27.9224C96.9471 18.4599 111.119 18.4599 111.119 27.9224V49.0077C111.119 64.4867 123.607 77.0942 139 77.0942V56.1729C135.063 56.1729 131.914 52.9732 131.914 49.0898ZM52.0164 22.0152V52.9185C52.0164 57.1301 45.5551 57.1301 45.5551 52.9185V22.0152H24.7051V58.3061C24.7051 64.8149 26.877 73.074 36.9219 75.7815C46.9668 78.4616 52.7223 72.8826 52.7223 72.8826C52.1521 76.5472 48.7857 79.2547 43.2475 79.8017C39.0395 80.2392 33.6912 78.8171 31.0307 77.6685V96.8942C37.8449 98.9453 45.0121 99.5743 52.0979 98.1796C64.8848 95.6909 72.9479 84.9431 72.9479 70.6127V21.8785H52.0164V22.0152Z" fill="#737373"/>
</svg>
