<svg width="149" height="109" viewBox="0 0 149 109" fill="none" xmlns="http://www.w3.org/2000/svg">
<path d="M149 0C130.189 12.6186 128.187 21.7765 126.557 24.578C124.997 27.4501 123.833 38.7739 121.132 44.2592C118.408 49.8151 108.514 54.194 105.743 56.0302C103.02 57.8665 99.1548 64.9998 95.9886 71.1443C70.8216 70.1084 57.0158 80.2786 35.6436 93.1797C42.4883 90.8961 45.7244 89.2482 45.7244 89.2482C67.6553 80.773 78.1552 73.1689 111.168 77.6654C111.424 77.6654 111.61 77.8067 111.82 77.8538C112.728 78.3717 113.054 79.4782 112.542 80.3963L99.993 102.95C99.4109 104.056 98.177 104.645 96.9431 104.386C67.4225 98.7827 44.118 108.459 22.6992 108.765C5.61078 109.024 0 100.878 0 100.501C0 100.242 0.139688 100.101 0.395781 100.101C0.395781 100.101 9.3125 100.101 24.3988 96.4991C41.5337 63.4695 56.8062 51.9104 73.4291 51.9104C73.4291 51.9104 90.1217 51.9104 94.5219 66.4829C99.83 57.1367 101.11 54.9002 101.11 54.9002C102.344 52.6873 109.259 36.7257 121.225 21.6117C133.215 6.54471 142.272 2.80151 149 0Z" fill="#737373"/>
</svg>
