<svg width="149" height="142" viewBox="0 0 149 142" fill="none" xmlns="http://www.w3.org/2000/svg">
<path d="M131.955 54.2699C127.26 54.2699 123.128 56.2307 120.091 59.2984C108.916 51.4868 93.8597 46.4583 77.1755 45.9207L85.8463 6.45167L113.455 12.7136C113.455 19.5448 118.964 25.1109 125.726 25.1109C132.612 25.1109 138.153 19.3866 138.153 12.5555C138.153 5.72427 132.644 0 125.726 0C120.905 0 116.742 2.9412 114.676 6.95768L84.1872 0.126503C82.6534 -0.284633 81.1509 0.822272 80.744 2.37194L71.228 45.8891C54.669 46.5848 39.769 51.6134 28.5627 59.4249C25.5263 56.2307 21.2379 54.2699 16.5425 54.2699C-0.861704 54.2699 -6.55876 77.8628 9.37422 85.9274C8.81077 88.4258 8.56035 91.0824 8.56035 93.739C8.56035 120.241 38.1099 141.715 74.3896 141.715C110.826 141.715 140.375 120.241 140.375 93.739C140.375 91.0824 140.094 88.2993 139.405 85.8009C155.025 77.7047 149.265 54.2699 131.955 54.2699ZM34.6353 87.6035C34.6353 80.6459 40.1446 75.0481 47.0625 75.0481C53.8238 75.0481 59.333 80.6142 59.333 87.6035C59.333 94.4347 53.8238 100.001 47.0625 100.001C40.1759 100.033 34.6353 94.4347 34.6353 87.6035ZM101.717 117.174C90.3225 128.686 58.1749 128.686 46.7807 117.174C45.5286 116.067 45.5286 114.106 46.7807 112.841C47.8763 111.734 49.8171 111.734 50.9127 112.841C59.6148 121.854 88.4757 122.012 97.5534 112.841C98.649 111.734 100.59 111.734 101.685 112.841C102.969 114.106 102.969 116.067 101.717 117.174ZM101.466 100.033C94.7049 100.033 89.1956 94.4664 89.1956 87.6352C89.1956 80.6775 94.7049 75.0797 101.466 75.0797C108.353 75.0797 113.893 80.6459 113.893 87.6352C113.862 94.4347 108.353 100.033 101.466 100.033Z" fill="#737373"/>
</svg>
