<svg width="149" height="60" viewBox="0 0 149 60" fill="none" xmlns="http://www.w3.org/2000/svg">
<path d="M38.3908 4.70455L28.31 6.79545L28.2634 39.1591C28.2634 45.1364 32.8731 49 38.9961 49C42.3952 49 44.8862 48.3864 46.2598 47.6591V39.9773C44.9328 40.5 38.4141 42.3636 38.4141 36.4091V22.0455H46.2598V13.4545H38.4141L38.3908 4.70455ZM59.1344 16.4318L58.5058 13.4545H49.5658V48.2727H59.8794V24.8409C62.3239 21.7045 66.4447 22.3182 67.7717 22.7273V13.4545C66.3748 12.9773 61.5556 12.0909 59.1344 16.4318ZM80.623 0L70.2395 2.15909V10.3864L80.623 8.22727V0ZM10.43 23.7045C10.43 22.1364 11.7803 21.5227 13.9455 21.5C17.0884 21.5 21.0928 22.4318 24.2358 24.0909V14.5909C20.8134 13.2727 17.3911 12.75 13.9687 12.75C5.5875 12.75 0 17.0227 0 24.1591C0 35.3409 15.7148 33.5227 15.7148 38.3409C15.7148 40.2046 14.0619 40.8182 11.757 40.8182C8.33469 40.8182 3.91125 39.4318 0.442344 37.5909V46.6818C4.28375 48.2955 8.17172 48.9773 11.7337 48.9773C20.3245 48.9773 26.238 45.3864 26.238 38.1136C26.238 26.0909 10.43 28.25 10.43 23.7045ZM148.977 31.2727C148.977 20.9318 143.855 12.7727 134.03 12.7727C124.205 12.7727 118.222 20.9318 118.222 31.2045C118.222 43.3636 125.276 48.9773 135.334 48.9773C140.27 48.9773 143.971 47.8864 146.788 46.3636V38.7727C143.971 40.1591 140.735 41 136.638 41C132.61 41 129.071 39.6136 128.606 34.8864H148.837C148.884 34.3636 148.977 32.25 148.977 31.2727ZM128.512 27.4545C128.512 22.9091 131.376 21 133.96 21C136.498 21 139.199 22.9091 139.199 27.4545H128.512ZM102.228 12.7727C98.177 12.7727 95.5695 14.6364 94.1261 15.9318L93.5906 13.4318H84.4876V59.9773L94.8245 57.8409L94.8478 46.4318C96.3378 47.5 98.5495 48.9773 102.158 48.9773C109.562 48.9773 116.313 43.7045 116.313 30.8864C116.336 19.1591 109.492 12.7727 102.228 12.7727ZM99.7601 40.6136C97.3389 40.6136 95.8955 39.75 94.8944 38.7045L94.8245 23.7045C95.8955 22.5455 97.3855 21.7045 99.7601 21.7045C103.532 21.7045 106.139 25.8409 106.139 31.1136C106.162 36.5455 103.602 40.6136 99.7601 40.6136ZM70.2628 48.2727H80.6462V13.4545H70.2628V48.2727Z" fill="#737373"/>
</svg>
